<svg xmlns="http://www.w3.org/2000/svg" width="1200" height="675" viewBox="0 0 1200 675" role="img" aria-labelledby="title desc">
  <title id="title">Blocksquare vs Propy vs RealT: Web3 Platforms for Real Estate (2026)</title>
  <desc id="desc">Editorial infrastructure visual for Real Estate.</desc>
  <defs>
    <radialGradient id="g1" cx="18%" cy="14%" r="60%"><stop stop-color="#9b7cff" stop-opacity=".48"/><stop offset="1" stop-color="#eef8ff" stop-opacity="0"/></radialGradient>
    <radialGradient id="g2" cx="86%" cy="12%" r="58%"><stop stop-color="#ffe36e" stop-opacity=".42"/><stop offset="1" stop-color="#eef8ff" stop-opacity="0"/></radialGradient>
    <linearGradient id="split" x1="0" x2="1"><stop stop-color="#eef8ff"/><stop offset=".55" stop-color="#eef8ff"/><stop offset=".55" stop-color="#fffdf2"/><stop offset="1" stop-color="#eef8ff"/></linearGradient>
    <filter id="shadow" x="-20%" y="-20%" width="140%" height="140%"><feDropShadow dx="0" dy="22" stdDeviation="22" flood-color="#12213a" flood-opacity=".14"/></filter>
  </defs>
  <rect width="1200" height="675" fill="#eef8ff"/>
  <rect width="1200" height="675" fill="url(#g1)"/>
  <rect width="1200" height="675" fill="url(#g2)"/>
  <g opacity=".9"><rect x="70" y="64" width="72" height="72" rx="20" fill="#9b7cff" opacity=".13" transform="rotate(-8 100 90)"/><rect x="202" y="214" width="100" height="114" rx="20" fill="#ffe36e" opacity=".13" transform="rotate(8 232 240)"/><rect x="334" y="364" width="128" height="72" rx="20" fill="#9b7cff" opacity=".13" transform="rotate(-8 364 390)"/><rect x="466" y="64" width="156" height="114" rx="20" fill="#ffe36e" opacity=".13" transform="rotate(8 496 90)"/><rect x="598" y="214" width="72" height="72" rx="20" fill="#9b7cff" opacity=".13" transform="rotate(-8 628 240)"/><rect x="730" y="364" width="100" height="114" rx="20" fill="#ffe36e" opacity=".13" transform="rotate(8 760 390)"/><rect x="862" y="64" width="128" height="72" rx="20" fill="#9b7cff" opacity=".13" transform="rotate(-8 892 90)"/><rect x="994" y="214" width="156" height="114" rx="20" fill="#ffe36e" opacity=".13" transform="rotate(8 1024 240)"/></g>
  <g><line x1="733" y1="587" x2="624" y2="398" stroke="#164b7a" stroke-opacity=".13" stroke-width="1.5"/><line x1="624" y1="398" x2="515" y2="209" stroke="#164b7a" stroke-opacity=".13" stroke-width="2.5"/><line x1="515" y1="209" x2="406" y2="460" stroke="#164b7a" stroke-opacity=".13" stroke-width="3.5"/><line x1="406" y1="460" x2="297" y2="271" stroke="#164b7a" stroke-opacity=".13" stroke-width="1.5"/><line x1="297" y1="271" x2="188" y2="522" stroke="#164b7a" stroke-opacity=".13" stroke-width="2.5"/><line x1="188" y1="522" x2="1019" y2="333" stroke="#164b7a" stroke-opacity=".13" stroke-width="3.5"/><line x1="1019" y1="333" x2="910" y2="584" stroke="#164b7a" stroke-opacity=".13" stroke-width="1.5"/><circle cx="733" cy="587" r="7" fill="#ffe36e" opacity="0.64"/><circle cx="624" cy="398" r="10" fill="#9b7cff" opacity="0.615"/><circle cx="515" cy="209" r="13" fill="#ffe36e" opacity="0.59"/><circle cx="406" cy="460" r="16" fill="#9b7cff" opacity="0.565"/><circle cx="297" cy="271" r="7" fill="#ffe36e" opacity="0.54"/><circle cx="188" cy="522" r="10" fill="#9b7cff" opacity="0.515"/><circle cx="1019" cy="333" r="13" fill="#ffe36e" opacity="0.49"/><circle cx="910" cy="584" r="16" fill="#9b7cff" opacity="0.46499999999999997"/></g>
  <g transform="translate(-300 0)"><path d="M630 132C770 48 1014 72 1130 210c108 128 8 302-150 356-184 62-396-12-432-178-22-104 6-210 82-256Z" fill="#fff" opacity=".42"/></g>
  <g transform="translate(-300 0)" filter="url(#shadow)"><g transform="translate(704 125)"><rect x="0" y="105" width="122" height="260" rx="12" fill="#164b7a" opacity=".9"/><rect x="142" y="32" width="150" height="333" rx="14" fill="#12213a" opacity=".94"/><rect x="318" y="132" width="116" height="233" rx="12" fill="#9b7cff" opacity=".7"/><rect x="24" y="132" width="15" height="16" rx="3" fill="#ffe36e" opacity=".65"/><rect x="54" y="132" width="15" height="16" rx="3" fill="#ffe36e" opacity=".65"/><rect x="84" y="132" width="15" height="16" rx="3" fill="#ffe36e" opacity=".65"/><rect x="24" y="162" width="15" height="16" rx="3" fill="#ffe36e" opacity=".65"/><rect x="54" y="162" width="15" height="16" rx="3" fill="#ffe36e" opacity=".65"/><rect x="84" y="162" width="15" height="16" rx="3" fill="#ffe36e" opacity=".65"/><rect x="24" y="192" width="15" height="16" rx="3" fill="#ffe36e" opacity=".65"/><rect x="54" y="192" width="15" height="16" rx="3" fill="#ffe36e" opacity=".65"/><rect x="84" y="192" width="15" height="16" rx="3" fill="#ffe36e" opacity=".65"/><rect x="24" y="222" width="15" height="16" rx="3" fill="#ffe36e" opacity=".65"/><rect x="54" y="222" width="15" height="16" rx="3" fill="#ffe36e" opacity=".65"/><rect x="84" y="222" width="15" height="16" rx="3" fill="#ffe36e" opacity=".65"/><rect x="24" y="252" width="15" height="16" rx="3" fill="#ffe36e" opacity=".65"/><rect x="54" y="252" width="15" height="16" rx="3" fill="#ffe36e" opacity=".65"/><rect x="84" y="252" width="15" height="16" rx="3" fill="#ffe36e" opacity=".65"/><rect x="24" y="282" width="15" height="16" rx="3" fill="#ffe36e" opacity=".65"/><rect x="54" y="282" width="15" height="16" rx="3" fill="#ffe36e" opacity=".65"/><rect x="84" y="282" width="15" height="16" rx="3" fill="#ffe36e" opacity=".65"/><rect x="24" y="312" width="15" height="16" rx="3" fill="#ffe36e" opacity=".65"/><rect x="54" y="312" width="15" height="16" rx="3" fill="#ffe36e" opacity=".65"/><rect x="84" y="312" width="15" height="16" rx="3" fill="#ffe36e" opacity=".65"/><rect x="170" y="62" width="14" height="15" rx="3" fill="#fff" opacity=".58"/><rect x="199" y="62" width="14" height="15" rx="3" fill="#fff" opacity=".58"/><rect x="228" y="62" width="14" height="15" rx="3" fill="#fff" opacity=".58"/><rect x="257" y="62" width="14" height="15" rx="3" fill="#fff" opacity=".58"/><rect x="170" y="92" width="14" height="15" rx="3" fill="#fff" opacity=".58"/><rect x="199" y="92" width="14" height="15" rx="3" fill="#fff" opacity=".58"/><rect x="228" y="92" width="14" height="15" rx="3" fill="#fff" opacity=".58"/><rect x="257" y="92" width="14" height="15" rx="3" fill="#fff" opacity=".58"/><rect x="170" y="122" width="14" height="15" rx="3" fill="#fff" opacity=".58"/><rect x="199" y="122" width="14" height="15" rx="3" fill="#fff" opacity=".58"/><rect x="228" y="122" width="14" height="15" rx="3" fill="#fff" opacity=".58"/><rect x="257" y="122" width="14" height="15" rx="3" fill="#fff" opacity=".58"/><rect x="170" y="152" width="14" height="15" rx="3" fill="#fff" opacity=".58"/><rect x="199" y="152" width="14" height="15" rx="3" fill="#fff" opacity=".58"/><rect x="228" y="152" width="14" height="15" rx="3" fill="#fff" opacity=".58"/><rect x="257" y="152" width="14" height="15" rx="3" fill="#fff" opacity=".58"/><rect x="170" y="182" width="14" height="15" rx="3" fill="#fff" opacity=".58"/><rect x="199" y="182" width="14" height="15" rx="3" fill="#fff" opacity=".58"/><rect x="228" y="182" width="14" height="15" rx="3" fill="#fff" opacity=".58"/><rect x="257" y="182" width="14" height="15" rx="3" fill="#fff" opacity=".58"/><rect x="170" y="212" width="14" height="15" rx="3" fill="#fff" opacity=".58"/><rect x="199" y="212" width="14" height="15" rx="3" fill="#fff" opacity=".58"/><rect x="228" y="212" width="14" height="15" rx="3" fill="#fff" opacity=".58"/><rect x="257" y="212" width="14" height="15" rx="3" fill="#fff" opacity=".58"/><rect x="170" y="242" width="14" height="15" rx="3" fill="#fff" opacity=".58"/><rect x="199" y="242" width="14" height="15" rx="3" fill="#fff" opacity=".58"/><rect x="228" y="242" width="14" height="15" rx="3" fill="#fff" opacity=".58"/><rect x="257" y="242" width="14" height="15" rx="3" fill="#fff" opacity=".58"/><rect x="170" y="272" width="14" height="15" rx="3" fill="#fff" opacity=".58"/><rect x="199" y="272" width="14" height="15" rx="3" fill="#fff" opacity=".58"/><rect x="228" y="272" width="14" height="15" rx="3" fill="#fff" opacity=".58"/><rect x="257" y="272" width="14" height="15" rx="3" fill="#fff" opacity=".58"/><rect x="170" y="302" width="14" height="15" rx="3" fill="#fff" opacity=".58"/><rect x="199" y="302" width="14" height="15" rx="3" fill="#fff" opacity=".58"/><rect x="228" y="302" width="14" height="15" rx="3" fill="#fff" opacity=".58"/><rect x="257" y="302" width="14" height="15" rx="3" fill="#fff" opacity=".58"/></g></g>
  <g filter="url(#shadow)" opacity=".82"><circle cx="142" cy="474" r="42" fill="#9b7cff" opacity=".44"/><circle cx="224" cy="506" r="26" fill="#ffe36e" opacity=".5"/><circle cx="304" cy="458" r="18" fill="#164b7a" opacity=".16"/></g>
</svg>