<svg xmlns="http://www.w3.org/2000/svg" width="1200" height="675" viewBox="0 0 1200 675" role="img" aria-labelledby="title desc">
  <title id="title">Halborn vs Spearbit vs Sherlock: Smart Contract Security</title>
  <desc id="desc">Editorial infrastructure visual for Security.</desc>
  <defs>
    <radialGradient id="g1" cx="18%" cy="14%" r="60%"><stop stop-color="#d49b12" stop-opacity=".48"/><stop offset="1" stop-color="#fff4e8" stop-opacity="0"/></radialGradient>
    <radialGradient id="g2" cx="86%" cy="12%" r="58%"><stop stop-color="#3f8cff" stop-opacity=".42"/><stop offset="1" stop-color="#fff4e8" stop-opacity="0"/></radialGradient>
    <linearGradient id="split" x1="0" x2="1"><stop stop-color="#fff4e8"/><stop offset=".55" stop-color="#fff4e8"/><stop offset=".55" stop-color="#eef8ff"/><stop offset="1" stop-color="#fff7d1"/></linearGradient>
    <filter id="shadow" x="-20%" y="-20%" width="140%" height="140%"><feDropShadow dx="0" dy="22" stdDeviation="22" flood-color="#12213a" flood-opacity=".14"/></filter>
  </defs>
  <rect width="1200" height="675" fill="#fff4e8"/>
  <rect width="1200" height="675" fill="url(#g1)"/>
  <rect width="1200" height="675" fill="url(#g2)"/>
  <g opacity=".9"><path d="M-80 0V675" stroke="#172033" stroke-opacity=".055"/><path d="M6 0V675" stroke="#172033" stroke-opacity=".055"/><path d="M92 0V675" stroke="#172033" stroke-opacity=".055"/><path d="M178 0V675" stroke="#172033" stroke-opacity=".055"/><path d="M264 0V675" stroke="#172033" stroke-opacity=".055"/><path d="M350 0V675" stroke="#172033" stroke-opacity=".055"/><path d="M436 0V675" stroke="#172033" stroke-opacity=".055"/><path d="M522 0V675" stroke="#172033" stroke-opacity=".055"/><path d="M608 0V675" stroke="#172033" stroke-opacity=".055"/><path d="M694 0V675" stroke="#172033" stroke-opacity=".055"/><path d="M780 0V675" stroke="#172033" stroke-opacity=".055"/><path d="M866 0V675" stroke="#172033" stroke-opacity=".055"/><path d="M952 0V675" stroke="#172033" stroke-opacity=".055"/><path d="M1038 0V675" stroke="#172033" stroke-opacity=".055"/><path d="M1124 0V675" stroke="#172033" stroke-opacity=".055"/><path d="M1210 0V675" stroke="#172033" stroke-opacity=".055"/><path d="M1296 0V675" stroke="#172033" stroke-opacity=".055"/><path d="M1382 0V675" stroke="#172033" stroke-opacity=".055"/><path d="M0 0H1200" stroke="#172033" stroke-opacity=".045"/><path d="M0 74H1200" stroke="#172033" stroke-opacity=".045"/><path d="M0 148H1200" stroke="#172033" stroke-opacity=".045"/><path d="M0 222H1200" stroke="#172033" stroke-opacity=".045"/><path d="M0 296H1200" stroke="#172033" stroke-opacity=".045"/><path d="M0 370H1200" stroke="#172033" stroke-opacity=".045"/><path d="M0 444H1200" stroke="#172033" stroke-opacity=".045"/><path d="M0 518H1200" stroke="#172033" stroke-opacity=".045"/><path d="M0 592H1200" stroke="#172033" stroke-opacity=".045"/><path d="M0 666H1200" stroke="#172033" stroke-opacity=".045"/></g>
  <g><line x1="763" y1="217" x2="664" y2="478" stroke="#172033" stroke-opacity=".13" stroke-width="1.5"/><line x1="664" y1="478" x2="565" y2="299" stroke="#172033" stroke-opacity=".13" stroke-width="2.5"/><line x1="565" y1="299" x2="466" y2="560" stroke="#172033" stroke-opacity=".13" stroke-width="3.5"/><line x1="466" y1="560" x2="367" y2="381" stroke="#172033" stroke-opacity=".13" stroke-width="1.5"/><line x1="367" y1="381" x2="268" y2="202" stroke="#172033" stroke-opacity=".13" stroke-width="2.5"/><line x1="268" y1="202" x2="169" y2="463" stroke="#172033" stroke-opacity=".13" stroke-width="3.5"/><line x1="169" y1="463" x2="1010" y2="284" stroke="#172033" stroke-opacity=".13" stroke-width="1.5"/><line x1="1010" y1="284" x2="911" y2="545" stroke="#172033" stroke-opacity=".13" stroke-width="2.5"/><line x1="911" y1="545" x2="812" y2="366" stroke="#172033" stroke-opacity=".13" stroke-width="3.5"/><line x1="812" y1="366" x2="713" y2="187" stroke="#172033" stroke-opacity=".13" stroke-width="1.5"/><circle cx="763" cy="217" r="7" fill="#3f8cff" opacity="0.64"/><circle cx="664" cy="478" r="10" fill="#d49b12" opacity="0.615"/><circle cx="565" cy="299" r="13" fill="#3f8cff" opacity="0.59"/><circle cx="466" cy="560" r="16" fill="#d49b12" opacity="0.565"/><circle cx="367" cy="381" r="7" fill="#3f8cff" opacity="0.54"/><circle cx="268" cy="202" r="10" fill="#d49b12" opacity="0.515"/><circle cx="169" cy="463" r="13" fill="#3f8cff" opacity="0.49"/><circle cx="1010" cy="284" r="16" fill="#d49b12" opacity="0.46499999999999997"/><circle cx="911" cy="545" r="7" fill="#3f8cff" opacity="0.44"/><circle cx="812" cy="366" r="10" fill="#d49b12" opacity="0.41500000000000004"/><circle cx="713" cy="187" r="13" fill="#3f8cff" opacity="0.39"/></g>
  <g transform="translate(-300 0)"><rect x="660" y="72" width="486" height="510" rx="44" fill="#fff" opacity=".52" stroke="#172033" stroke-opacity=".08"/></g>
  <g transform="translate(-300 0)" filter="url(#shadow)"><g transform="translate(692 112)"><rect x="0" y="0" width="424" height="344" rx="34" fill="#4b2e83" opacity=".94"/><circle cx="44" cy="42" r="10" fill="#d49b12"/><circle cx="76" cy="42" r="10" fill="#3f8cff"/><circle cx="108" cy="42" r="10" fill="#fff" opacity=".7"/><path d="m104 168-54 48 54 48M320 168l54 48-54 48M246 122l-70 188" fill="none" stroke="#3f8cff" stroke-width="24" stroke-linecap="round" stroke-linejoin="round"/><rect x="66" y="296" width="292" height="16" rx="8" fill="#d49b12" opacity=".72"/></g></g>
  <g filter="url(#shadow)" opacity=".82"><circle cx="142" cy="474" r="42" fill="#d49b12" opacity=".44"/><circle cx="224" cy="506" r="26" fill="#3f8cff" opacity=".5"/><circle cx="304" cy="458" r="18" fill="#4b2e83" opacity=".16"/></g>
</svg>