<svg xmlns="http://www.w3.org/2000/svg" width="1200" height="675" viewBox="0 0 1200 675" role="img" aria-labelledby="title desc">
  <title id="title">How Do I Know If Tokenization Is Right for My Assets?</title>
  <desc id="desc">Editorial infrastructure visual for Tokenization.</desc>
  <defs>
    <radialGradient id="g1" cx="18%" cy="14%" r="60%"><stop stop-color="#d49b12" stop-opacity=".48"/><stop offset="1" stop-color="#fff4e8" stop-opacity="0"/></radialGradient>
    <radialGradient id="g2" cx="86%" cy="12%" r="58%"><stop stop-color="#3f8cff" stop-opacity=".42"/><stop offset="1" stop-color="#fff4e8" stop-opacity="0"/></radialGradient>
    <linearGradient id="split" x1="0" x2="1"><stop stop-color="#fff4e8"/><stop offset=".55" stop-color="#fff4e8"/><stop offset=".55" stop-color="#eef8ff"/><stop offset="1" stop-color="#fff7d1"/></linearGradient>
    <filter id="shadow" x="-20%" y="-20%" width="140%" height="140%"><feDropShadow dx="0" dy="22" stdDeviation="22" flood-color="#12213a" flood-opacity=".14"/></filter>
  </defs>
  <rect width="1200" height="675" fill="#fff4e8"/>
  <rect width="1200" height="675" fill="url(#g1)"/>
  <rect width="1200" height="675" fill="url(#g2)"/>
  <g opacity=".9"><path d="M0 80C260 20 560 160 1200 60" fill="none" stroke="#172033" stroke-opacity=".09" stroke-width="2"/><path d="M0 146C260 66 560 184 1200 118" fill="none" stroke="#d49b12" stroke-opacity=".09" stroke-width="3"/><path d="M0 212C260 112 560 208 1200 176" fill="none" stroke="#172033" stroke-opacity=".09" stroke-width="4"/><path d="M0 278C260 158 560 232 1200 234" fill="none" stroke="#d49b12" stroke-opacity=".09" stroke-width="2"/><path d="M0 344C260 204 560 256 1200 292" fill="none" stroke="#172033" stroke-opacity=".09" stroke-width="3"/><path d="M0 410C260 250 560 280 1200 350" fill="none" stroke="#d49b12" stroke-opacity=".09" stroke-width="4"/><path d="M0 476C260 296 560 304 1200 408" fill="none" stroke="#172033" stroke-opacity=".09" stroke-width="2"/><path d="M0 542C260 342 560 328 1200 466" fill="none" stroke="#d49b12" stroke-opacity=".09" stroke-width="3"/><path d="M0 608C260 388 560 352 1200 524" fill="none" stroke="#172033" stroke-opacity=".09" stroke-width="4"/></g>
  <g><line x1="209" y1="251" x2="552" y2="454" stroke="#172033" stroke-opacity=".13" stroke-width="1.5"/><line x1="552" y1="454" x2="895" y2="217" stroke="#172033" stroke-opacity=".13" stroke-width="2.5"/><line x1="895" y1="217" x2="298" y2="420" stroke="#172033" stroke-opacity=".13" stroke-width="3.5"/><line x1="298" y1="420" x2="641" y2="183" stroke="#172033" stroke-opacity=".13" stroke-width="1.5"/><line x1="641" y1="183" x2="984" y2="386" stroke="#172033" stroke-opacity=".13" stroke-width="2.5"/><line x1="984" y1="386" x2="387" y2="589" stroke="#172033" stroke-opacity=".13" stroke-width="3.5"/><line x1="387" y1="589" x2="730" y2="352" stroke="#172033" stroke-opacity=".13" stroke-width="1.5"/><line x1="730" y1="352" x2="133" y2="555" stroke="#172033" stroke-opacity=".13" stroke-width="2.5"/><line x1="133" y1="555" x2="476" y2="318" stroke="#172033" stroke-opacity=".13" stroke-width="3.5"/><line x1="476" y1="318" x2="819" y2="521" stroke="#172033" stroke-opacity=".13" stroke-width="1.5"/><circle cx="209" cy="251" r="7" fill="#3f8cff" opacity="0.64"/><circle cx="552" cy="454" r="10" fill="#d49b12" opacity="0.615"/><circle cx="895" cy="217" r="13" fill="#3f8cff" opacity="0.59"/><circle cx="298" cy="420" r="16" fill="#d49b12" opacity="0.565"/><circle cx="641" cy="183" r="7" fill="#3f8cff" opacity="0.54"/><circle cx="984" cy="386" r="10" fill="#d49b12" opacity="0.515"/><circle cx="387" cy="589" r="13" fill="#3f8cff" opacity="0.49"/><circle cx="730" cy="352" r="16" fill="#d49b12" opacity="0.46499999999999997"/><circle cx="133" cy="555" r="7" fill="#3f8cff" opacity="0.44"/><circle cx="476" cy="318" r="10" fill="#d49b12" opacity="0.41500000000000004"/><circle cx="819" cy="521" r="13" fill="#3f8cff" opacity="0.39"/></g>
  <g transform="translate(-300 0)"><rect x="628" y="96" width="520" height="420" rx="54" fill="#4b2e83" opacity=".08"/><rect x="676" y="140" width="424" height="326" rx="38" fill="#fff" opacity=".46"/></g>
  <g transform="translate(-300 0)" filter="url(#shadow)"><g transform="translate(708 112)"><rect x="0" y="0" width="412" height="318" rx="34" fill="#fff" opacity=".7"/><circle cx="160" cy="146" r="92" fill="none" stroke="#4b2e83" stroke-width="34"/><path d="M224 210l112 112" stroke="#4b2e83" stroke-width="36" stroke-linecap="round"/><rect x="58" y="40" width="292" height="22" rx="11" fill="#d49b12" opacity=".72"/><rect x="58" y="270" width="200" height="20" rx="10" fill="#3f8cff" opacity=".78"/></g></g>
  <g filter="url(#shadow)" opacity=".82"><circle cx="142" cy="474" r="42" fill="#d49b12" opacity=".44"/><circle cx="224" cy="506" r="26" fill="#3f8cff" opacity=".5"/><circle cx="304" cy="458" r="18" fill="#4b2e83" opacity=".16"/></g>
</svg>