<svg xmlns="http://www.w3.org/2000/svg" width="1200" height="675" viewBox="0 0 1200 675" role="img" aria-labelledby="title desc">
  <title id="title">INX vs tZERO vs Texture Capital: Digital Securities Platforms Compared (2026)</title>
  <desc id="desc">Editorial infrastructure visual for Digital Securities Market Infrastructure.</desc>
  <defs>
    <radialGradient id="g1" cx="18%" cy="14%" r="60%"><stop stop-color="#e16ba8" stop-opacity=".48"/><stop offset="1" stop-color="#fff2f7" stop-opacity="0"/></radialGradient>
    <radialGradient id="g2" cx="86%" cy="12%" r="58%"><stop stop-color="#ffe36e" stop-opacity=".42"/><stop offset="1" stop-color="#fff2f7" stop-opacity="0"/></radialGradient>
    <linearGradient id="split" x1="0" x2="1"><stop stop-color="#fff2f7"/><stop offset=".55" stop-color="#fff2f7"/><stop offset=".55" stop-color="#eef8ff"/><stop offset="1" stop-color="#fff7d1"/></linearGradient>
    <filter id="shadow" x="-20%" y="-20%" width="140%" height="140%"><feDropShadow dx="0" dy="22" stdDeviation="22" flood-color="#12213a" flood-opacity=".14"/></filter>
  </defs>
  <rect width="1200" height="675" fill="#fff2f7"/>
  <rect width="1200" height="675" fill="url(#g1)"/>
  <rect width="1200" height="675" fill="url(#g2)"/>
  <g opacity=".9"><path d="M80 80l38 22v44l-38 22-38-22v-44z" fill="none" stroke="#351528" stroke-opacity=".12" stroke-width="3"/><path d="M158 80l38 22v44l-38 22-38-22v-44z" fill="none" stroke="#e16ba8" stroke-opacity=".12" stroke-width="3"/><path d="M236 80l38 22v44l-38 22-38-22v-44z" fill="none" stroke="#351528" stroke-opacity=".12" stroke-width="3"/><path d="M314 80l38 22v44l-38 22-38-22v-44z" fill="none" stroke="#e16ba8" stroke-opacity=".12" stroke-width="3"/><path d="M392 80l38 22v44l-38 22-38-22v-44z" fill="none" stroke="#351528" stroke-opacity=".12" stroke-width="3"/><path d="M470 80l38 22v44l-38 22-38-22v-44z" fill="none" stroke="#e16ba8" stroke-opacity=".12" stroke-width="3"/><path d="M548 80l38 22v44l-38 22-38-22v-44z" fill="none" stroke="#351528" stroke-opacity=".12" stroke-width="3"/><path d="M626 80l38 22v44l-38 22-38-22v-44z" fill="none" stroke="#e16ba8" stroke-opacity=".12" stroke-width="3"/><path d="M704 80l38 22v44l-38 22-38-22v-44z" fill="none" stroke="#351528" stroke-opacity=".12" stroke-width="3"/><path d="M782 80l38 22v44l-38 22-38-22v-44z" fill="none" stroke="#e16ba8" stroke-opacity=".12" stroke-width="3"/><path d="M860 80l38 22v44l-38 22-38-22v-44z" fill="none" stroke="#351528" stroke-opacity=".12" stroke-width="3"/><path d="M938 80l38 22v44l-38 22-38-22v-44z" fill="none" stroke="#e16ba8" stroke-opacity=".12" stroke-width="3"/><path d="M1016 80l38 22v44l-38 22-38-22v-44z" fill="none" stroke="#351528" stroke-opacity=".12" stroke-width="3"/><path d="M1094 80l38 22v44l-38 22-38-22v-44z" fill="none" stroke="#e16ba8" stroke-opacity=".12" stroke-width="3"/></g>
  <g><line x1="143" y1="537" x2="464" y2="278" stroke="#351528" stroke-opacity=".13" stroke-width="1.5"/><line x1="464" y1="278" x2="785" y2="459" stroke="#351528" stroke-opacity=".13" stroke-width="2.5"/><line x1="785" y1="459" x2="166" y2="200" stroke="#351528" stroke-opacity=".13" stroke-width="3.5"/><line x1="166" y1="200" x2="487" y2="381" stroke="#351528" stroke-opacity=".13" stroke-width="1.5"/><line x1="487" y1="381" x2="808" y2="562" stroke="#351528" stroke-opacity=".13" stroke-width="2.5"/><line x1="808" y1="562" x2="189" y2="303" stroke="#351528" stroke-opacity=".13" stroke-width="3.5"/><line x1="189" y1="303" x2="510" y2="484" stroke="#351528" stroke-opacity=".13" stroke-width="1.5"/><line x1="510" y1="484" x2="831" y2="225" stroke="#351528" stroke-opacity=".13" stroke-width="2.5"/><line x1="831" y1="225" x2="212" y2="406" stroke="#351528" stroke-opacity=".13" stroke-width="3.5"/><circle cx="143" cy="537" r="7" fill="#ffe36e" opacity="0.64"/><circle cx="464" cy="278" r="10" fill="#e16ba8" opacity="0.615"/><circle cx="785" cy="459" r="13" fill="#ffe36e" opacity="0.59"/><circle cx="166" cy="200" r="16" fill="#e16ba8" opacity="0.565"/><circle cx="487" cy="381" r="7" fill="#ffe36e" opacity="0.54"/><circle cx="808" cy="562" r="10" fill="#e16ba8" opacity="0.515"/><circle cx="189" cy="303" r="13" fill="#ffe36e" opacity="0.49"/><circle cx="510" cy="484" r="16" fill="#e16ba8" opacity="0.46499999999999997"/><circle cx="831" cy="225" r="7" fill="#ffe36e" opacity="0.44"/><circle cx="212" cy="406" r="10" fill="#e16ba8" opacity="0.41500000000000004"/></g>
  <g transform="translate(-300 0)"><rect x="640" y="86" width="492" height="438" rx="40" fill="#fff" opacity=".44"/><path d="M690 524h392" stroke="#164b7a" stroke-opacity=".18" stroke-width="14" stroke-linecap="round"/></g>
  <g transform="translate(-300 0)" filter="url(#shadow)"><g transform="translate(686 132)"><rect x="0" y="0" width="444" height="318" rx="34" fill="rgba(255,255,255,.62)" stroke="#351528" stroke-opacity=".12"/><path d="M58 240C132 180 160 208 220 126s106-30 166-104" fill="none" stroke="#164b7a" stroke-width="24" stroke-linecap="round"/><path d="M58 250h340" stroke="#351528" stroke-opacity=".18" stroke-width="5"/><rect x="70" y="168" width="42" height="90" rx="12" fill="#e16ba8" opacity=".86"/><rect x="146" y="118" width="42" height="140" rx="12" fill="#ffe36e" opacity=".86"/><rect x="222" y="72" width="42" height="186" rx="12" fill="#164b7a" opacity=".9"/></g></g>
  <g filter="url(#shadow)" opacity=".82"><circle cx="142" cy="474" r="42" fill="#e16ba8" opacity=".44"/><circle cx="224" cy="506" r="26" fill="#ffe36e" opacity=".5"/><circle cx="304" cy="458" r="18" fill="#164b7a" opacity=".16"/></g>
</svg>