<svg xmlns="http://www.w3.org/2000/svg" width="1200" height="675" viewBox="0 0 1200 675" role="img" aria-labelledby="title desc">
  <title id="title">Securitize vs Tokeny vs DigiShares: Tokenization Platform Comparison (2026)</title>
  <desc id="desc">Editorial infrastructure visual for Tokenization Platforms.</desc>
  <defs>
    <radialGradient id="g1" cx="18%" cy="14%" r="60%"><stop stop-color="#d49b12" stop-opacity=".48"/><stop offset="1" stop-color="#fff4e8" stop-opacity="0"/></radialGradient>
    <radialGradient id="g2" cx="86%" cy="12%" r="58%"><stop stop-color="#3f8cff" stop-opacity=".42"/><stop offset="1" stop-color="#fff4e8" stop-opacity="0"/></radialGradient>
    <linearGradient id="split" x1="0" x2="1"><stop stop-color="#fff4e8"/><stop offset=".55" stop-color="#fff4e8"/><stop offset=".55" stop-color="#eef8ff"/><stop offset="1" stop-color="#fff7d1"/></linearGradient>
    <filter id="shadow" x="-20%" y="-20%" width="140%" height="140%"><feDropShadow dx="0" dy="22" stdDeviation="22" flood-color="#12213a" flood-opacity=".14"/></filter>
  </defs>
  <rect width="1200" height="675" fill="#fff4e8"/>
  <rect width="1200" height="675" fill="url(#g1)"/>
  <rect width="1200" height="675" fill="url(#g2)"/>
  <g opacity=".9"><path d="M0 80C260 20 560 160 1200 60" fill="none" stroke="#172033" stroke-opacity=".09" stroke-width="2"/><path d="M0 146C260 66 560 184 1200 118" fill="none" stroke="#d49b12" stroke-opacity=".09" stroke-width="3"/><path d="M0 212C260 112 560 208 1200 176" fill="none" stroke="#172033" stroke-opacity=".09" stroke-width="4"/><path d="M0 278C260 158 560 232 1200 234" fill="none" stroke="#d49b12" stroke-opacity=".09" stroke-width="2"/><path d="M0 344C260 204 560 256 1200 292" fill="none" stroke="#172033" stroke-opacity=".09" stroke-width="3"/><path d="M0 410C260 250 560 280 1200 350" fill="none" stroke="#d49b12" stroke-opacity=".09" stroke-width="4"/><path d="M0 476C260 296 560 304 1200 408" fill="none" stroke="#172033" stroke-opacity=".09" stroke-width="2"/><path d="M0 542C260 342 560 328 1200 466" fill="none" stroke="#d49b12" stroke-opacity=".09" stroke-width="3"/><path d="M0 608C260 388 560 352 1200 524" fill="none" stroke="#172033" stroke-opacity=".09" stroke-width="4"/></g>
  <g><line x1="753" y1="187" x2="964" y2="318" stroke="#172033" stroke-opacity=".13" stroke-width="1.5"/><line x1="964" y1="318" x2="235" y2="449" stroke="#172033" stroke-opacity=".13" stroke-width="2.5"/><line x1="235" y1="449" x2="446" y2="580" stroke="#172033" stroke-opacity=".13" stroke-width="3.5"/><line x1="446" y1="580" x2="657" y2="271" stroke="#172033" stroke-opacity=".13" stroke-width="1.5"/><line x1="657" y1="271" x2="868" y2="402" stroke="#172033" stroke-opacity=".13" stroke-width="2.5"/><line x1="868" y1="402" x2="139" y2="533" stroke="#172033" stroke-opacity=".13" stroke-width="3.5"/><line x1="139" y1="533" x2="350" y2="224" stroke="#172033" stroke-opacity=".13" stroke-width="1.5"/><line x1="350" y1="224" x2="561" y2="355" stroke="#172033" stroke-opacity=".13" stroke-width="2.5"/><line x1="561" y1="355" x2="772" y2="486" stroke="#172033" stroke-opacity=".13" stroke-width="3.5"/><line x1="772" y1="486" x2="983" y2="177" stroke="#172033" stroke-opacity=".13" stroke-width="1.5"/><circle cx="753" cy="187" r="7" fill="#3f8cff" opacity="0.64"/><circle cx="964" cy="318" r="10" fill="#d49b12" opacity="0.615"/><circle cx="235" cy="449" r="13" fill="#3f8cff" opacity="0.59"/><circle cx="446" cy="580" r="16" fill="#d49b12" opacity="0.565"/><circle cx="657" cy="271" r="7" fill="#3f8cff" opacity="0.54"/><circle cx="868" cy="402" r="10" fill="#d49b12" opacity="0.515"/><circle cx="139" cy="533" r="13" fill="#3f8cff" opacity="0.49"/><circle cx="350" cy="224" r="16" fill="#d49b12" opacity="0.46499999999999997"/><circle cx="561" cy="355" r="7" fill="#3f8cff" opacity="0.44"/><circle cx="772" cy="486" r="10" fill="#d49b12" opacity="0.41500000000000004"/><circle cx="983" cy="177" r="13" fill="#3f8cff" opacity="0.39"/></g>
  <g transform="translate(-300 0)"><rect x="628" y="96" width="520" height="420" rx="54" fill="#4b2e83" opacity=".08"/><rect x="676" y="140" width="424" height="326" rx="38" fill="#fff" opacity=".46"/></g>
  <g transform="translate(-300 0)" filter="url(#shadow)"><g transform="translate(708 112)"><rect x="0" y="0" width="424" height="332" rx="34" fill="#4b2e83" opacity=".92"/><rect x="36" y="42" width="352" height="54" rx="18" fill="#fff" opacity=".78"/><circle cx="70" cy="69" r="14" fill="#d49b12"/><path d="M116 69h218" stroke="#172033" stroke-width="12" stroke-linecap="round" opacity=".45"/><rect x="36" y="124" width="352" height="46" rx="18" fill="#3f8cff" opacity=".76"/><rect x="36" y="192" width="352" height="46" rx="18" fill="#d49b12" opacity=".76"/><rect x="36" y="260" width="352" height="46" rx="18" fill="#3f8cff" opacity=".76"/></g></g>
  <g filter="url(#shadow)" opacity=".82"><circle cx="142" cy="474" r="42" fill="#d49b12" opacity=".44"/><circle cx="224" cy="506" r="26" fill="#3f8cff" opacity=".5"/><circle cx="304" cy="458" r="18" fill="#4b2e83" opacity=".16"/></g>
</svg>