<svg xmlns="http://www.w3.org/2000/svg" width="1200" height="675" viewBox="0 0 1200 675" role="img" aria-labelledby="title desc">
  <title id="title">Centrifuge vs Maple vs Goldfinch: Onchain Private Credit Compared</title>
  <desc id="desc">Editorial infrastructure visual for Onchain Private Credit.</desc>
  <defs>
    <radialGradient id="g1" cx="18%" cy="14%" r="60%"><stop stop-color="#63e8ff" stop-opacity=".48"/><stop offset="1" stop-color="#f4fbff" stop-opacity="0"/></radialGradient>
    <radialGradient id="g2" cx="86%" cy="12%" r="58%"><stop stop-color="#f6c915" stop-opacity=".42"/><stop offset="1" stop-color="#f4fbff" stop-opacity="0"/></radialGradient>
    <linearGradient id="split" x1="0" x2="1"><stop stop-color="#f4fbff"/><stop offset=".55" stop-color="#f4fbff"/><stop offset=".55" stop-color="#fffdf2"/><stop offset="1" stop-color="#eef8ff"/></linearGradient>
    <filter id="shadow" x="-20%" y="-20%" width="140%" height="140%"><feDropShadow dx="0" dy="22" stdDeviation="22" flood-color="#12213a" flood-opacity=".14"/></filter>
  </defs>
  <rect width="1200" height="675" fill="#f4fbff"/>
  <rect width="1200" height="675" fill="url(#g1)"/>
  <rect width="1200" height="675" fill="url(#g2)"/>
  <g opacity=".9"><rect x="70" y="64" width="72" height="72" rx="20" fill="#63e8ff" opacity=".13" transform="rotate(-8 100 90)"/><rect x="202" y="214" width="100" height="114" rx="20" fill="#f6c915" opacity=".13" transform="rotate(8 232 240)"/><rect x="334" y="364" width="128" height="72" rx="20" fill="#63e8ff" opacity=".13" transform="rotate(-8 364 390)"/><rect x="466" y="64" width="156" height="114" rx="20" fill="#f6c915" opacity=".13" transform="rotate(8 496 90)"/><rect x="598" y="214" width="72" height="72" rx="20" fill="#63e8ff" opacity=".13" transform="rotate(-8 628 240)"/><rect x="730" y="364" width="100" height="114" rx="20" fill="#f6c915" opacity=".13" transform="rotate(8 760 390)"/><rect x="862" y="64" width="128" height="72" rx="20" fill="#63e8ff" opacity=".13" transform="rotate(-8 892 90)"/><rect x="994" y="214" width="156" height="114" rx="20" fill="#f6c915" opacity=".13" transform="rotate(8 1024 240)"/></g>
  <g><line x1="496" y1="474" x2="308" y2="206" stroke="#17324f" stroke-opacity=".13" stroke-width="1.5"/><line x1="308" y1="206" x2="120" y2="378" stroke="#17324f" stroke-opacity=".13" stroke-width="2.5"/><line x1="120" y1="378" x2="872" y2="550" stroke="#17324f" stroke-opacity=".13" stroke-width="3.5"/><line x1="872" y1="550" x2="684" y2="282" stroke="#17324f" stroke-opacity=".13" stroke-width="1.5"/><line x1="684" y1="282" x2="496" y2="454" stroke="#17324f" stroke-opacity=".13" stroke-width="2.5"/><line x1="496" y1="454" x2="308" y2="186" stroke="#17324f" stroke-opacity=".13" stroke-width="3.5"/><line x1="308" y1="186" x2="120" y2="358" stroke="#17324f" stroke-opacity=".13" stroke-width="1.5"/><line x1="120" y1="358" x2="872" y2="530" stroke="#17324f" stroke-opacity=".13" stroke-width="2.5"/><line x1="872" y1="530" x2="684" y2="262" stroke="#17324f" stroke-opacity=".13" stroke-width="3.5"/><line x1="684" y1="262" x2="496" y2="434" stroke="#17324f" stroke-opacity=".13" stroke-width="1.5"/><circle cx="496" cy="474" r="7" fill="#f6c915" opacity="0.64"/><circle cx="308" cy="206" r="10" fill="#63e8ff" opacity="0.615"/><circle cx="120" cy="378" r="13" fill="#f6c915" opacity="0.59"/><circle cx="872" cy="550" r="16" fill="#63e8ff" opacity="0.565"/><circle cx="684" cy="282" r="7" fill="#f6c915" opacity="0.54"/><circle cx="496" cy="454" r="10" fill="#63e8ff" opacity="0.515"/><circle cx="308" cy="186" r="13" fill="#f6c915" opacity="0.49"/><circle cx="120" cy="358" r="16" fill="#63e8ff" opacity="0.46499999999999997"/><circle cx="872" cy="530" r="7" fill="#f6c915" opacity="0.44"/><circle cx="684" cy="262" r="10" fill="#63e8ff" opacity="0.41500000000000004"/><circle cx="496" cy="434" r="13" fill="#f6c915" opacity="0.39"/></g>
  <g transform="translate(-300 0)"><path d="M630 132C770 48 1014 72 1130 210c108 128 8 302-150 356-184 62-396-12-432-178-22-104 6-210 82-256Z" fill="#fff" opacity=".42"/></g>
  <g transform="translate(-300 0)" filter="url(#shadow)"><g transform="translate(700 90)"><circle cx="204" cy="202" r="150" fill="#17324f" opacity=".9"/><path d="M132 174c0-52 38-92 86-92s86 40 86 92c0 68-50 82-50 128H182c0-46-50-60-50-128Z" fill="#63e8ff" opacity=".82"/><g><line x1="204" y1="202" x2="414.0" y2="202.0" stroke="#f6c915" stroke-width="4" opacity=".48"/><circle cx="414.0" cy="202.0" r="15" fill="#f6c915" opacity=".82"/><line x1="204" y1="202" x2="373.9" y2="305.5" stroke="#f6c915" stroke-width="4" opacity=".48"/><circle cx="373.9" cy="305.5" r="15" fill="#63e8ff" opacity=".82"/><line x1="204" y1="202" x2="268.9" y2="369.4" stroke="#f6c915" stroke-width="4" opacity=".48"/><circle cx="268.9" cy="369.4" r="15" fill="#f6c915" opacity=".82"/><line x1="204" y1="202" x2="139.1" y2="369.4" stroke="#f6c915" stroke-width="4" opacity=".48"/><circle cx="139.1" cy="369.4" r="15" fill="#63e8ff" opacity=".82"/><line x1="204" y1="202" x2="34.1" y2="305.5" stroke="#f6c915" stroke-width="4" opacity=".48"/><circle cx="34.1" cy="305.5" r="15" fill="#f6c915" opacity=".82"/><line x1="204" y1="202" x2="-6.0" y2="202.0" stroke="#f6c915" stroke-width="4" opacity=".48"/><circle cx="-6.0" cy="202.0" r="15" fill="#63e8ff" opacity=".82"/><line x1="204" y1="202" x2="34.1" y2="98.5" stroke="#f6c915" stroke-width="4" opacity=".48"/><circle cx="34.1" cy="98.5" r="15" fill="#f6c915" opacity=".82"/><line x1="204" y1="202" x2="139.1" y2="34.6" stroke="#f6c915" stroke-width="4" opacity=".48"/><circle cx="139.1" cy="34.6" r="15" fill="#63e8ff" opacity=".82"/><line x1="204" y1="202" x2="268.9" y2="34.6" stroke="#f6c915" stroke-width="4" opacity=".48"/><circle cx="268.9" cy="34.6" r="15" fill="#f6c915" opacity=".82"/><line x1="204" y1="202" x2="373.9" y2="98.5" stroke="#f6c915" stroke-width="4" opacity=".48"/><circle cx="373.9" cy="98.5" r="15" fill="#63e8ff" opacity=".82"/></g></g></g>
  <g filter="url(#shadow)" opacity=".82"><circle cx="142" cy="474" r="42" fill="#63e8ff" opacity=".44"/><circle cx="224" cy="506" r="26" fill="#f6c915" opacity=".5"/><circle cx="304" cy="458" r="18" fill="#17324f" opacity=".16"/></g>
</svg>