<svg xmlns="http://www.w3.org/2000/svg" width="1200" height="675" viewBox="0 0 1200 675" role="img" aria-labelledby="title desc">
  <title id="title">ETH Smart Contracts: Ethereum Smart Contract Development Guide</title>
  <desc id="desc">Editorial infrastructure visual for Smart Contracts.</desc>
  <defs>
    <radialGradient id="g1" cx="18%" cy="14%" r="60%"><stop stop-color="#9b7cff" stop-opacity=".48"/><stop offset="1" stop-color="#f6f2ff" stop-opacity="0"/></radialGradient>
    <radialGradient id="g2" cx="86%" cy="12%" r="58%"><stop stop-color="#ffdf45" stop-opacity=".42"/><stop offset="1" stop-color="#f6f2ff" stop-opacity="0"/></radialGradient>
    <linearGradient id="split" x1="0" x2="1"><stop stop-color="#f6f2ff"/><stop offset=".55" stop-color="#f6f2ff"/><stop offset=".55" stop-color="#eef8ff"/><stop offset="1" stop-color="#fff7d1"/></linearGradient>
    <filter id="shadow" x="-20%" y="-20%" width="140%" height="140%"><feDropShadow dx="0" dy="22" stdDeviation="22" flood-color="#12213a" flood-opacity=".14"/></filter>
  </defs>
  <rect width="1200" height="675" fill="#f6f2ff"/>
  <rect width="1200" height="675" fill="url(#g1)"/>
  <rect width="1200" height="675" fill="url(#g2)"/>
  <g opacity=".9"><path d="M-80 0V675" stroke="#27144a" stroke-opacity=".055"/><path d="M6 0V675" stroke="#27144a" stroke-opacity=".055"/><path d="M92 0V675" stroke="#27144a" stroke-opacity=".055"/><path d="M178 0V675" stroke="#27144a" stroke-opacity=".055"/><path d="M264 0V675" stroke="#27144a" stroke-opacity=".055"/><path d="M350 0V675" stroke="#27144a" stroke-opacity=".055"/><path d="M436 0V675" stroke="#27144a" stroke-opacity=".055"/><path d="M522 0V675" stroke="#27144a" stroke-opacity=".055"/><path d="M608 0V675" stroke="#27144a" stroke-opacity=".055"/><path d="M694 0V675" stroke="#27144a" stroke-opacity=".055"/><path d="M780 0V675" stroke="#27144a" stroke-opacity=".055"/><path d="M866 0V675" stroke="#27144a" stroke-opacity=".055"/><path d="M952 0V675" stroke="#27144a" stroke-opacity=".055"/><path d="M1038 0V675" stroke="#27144a" stroke-opacity=".055"/><path d="M1124 0V675" stroke="#27144a" stroke-opacity=".055"/><path d="M1210 0V675" stroke="#27144a" stroke-opacity=".055"/><path d="M1296 0V675" stroke="#27144a" stroke-opacity=".055"/><path d="M1382 0V675" stroke="#27144a" stroke-opacity=".055"/><path d="M0 0H1200" stroke="#27144a" stroke-opacity=".045"/><path d="M0 74H1200" stroke="#27144a" stroke-opacity=".045"/><path d="M0 148H1200" stroke="#27144a" stroke-opacity=".045"/><path d="M0 222H1200" stroke="#27144a" stroke-opacity=".045"/><path d="M0 296H1200" stroke="#27144a" stroke-opacity=".045"/><path d="M0 370H1200" stroke="#27144a" stroke-opacity=".045"/><path d="M0 444H1200" stroke="#27144a" stroke-opacity=".045"/><path d="M0 518H1200" stroke="#27144a" stroke-opacity=".045"/><path d="M0 592H1200" stroke="#27144a" stroke-opacity=".045"/><path d="M0 666H1200" stroke="#27144a" stroke-opacity=".045"/></g>
  <g><line x1="661" y1="459" x2="528" y2="566" stroke="#27144a" stroke-opacity=".13" stroke-width="1.5"/><line x1="528" y1="566" x2="395" y2="233" stroke="#27144a" stroke-opacity=".13" stroke-width="2.5"/><line x1="395" y1="233" x2="262" y2="340" stroke="#27144a" stroke-opacity=".13" stroke-width="3.5"/><line x1="262" y1="340" x2="129" y2="447" stroke="#27144a" stroke-opacity=".13" stroke-width="1.5"/><line x1="129" y1="447" x2="936" y2="554" stroke="#27144a" stroke-opacity=".13" stroke-width="2.5"/><line x1="936" y1="554" x2="803" y2="221" stroke="#27144a" stroke-opacity=".13" stroke-width="3.5"/><line x1="803" y1="221" x2="670" y2="328" stroke="#27144a" stroke-opacity=".13" stroke-width="1.5"/><circle cx="661" cy="459" r="7" fill="#ffdf45" opacity="0.64"/><circle cx="528" cy="566" r="10" fill="#9b7cff" opacity="0.615"/><circle cx="395" cy="233" r="13" fill="#ffdf45" opacity="0.59"/><circle cx="262" cy="340" r="16" fill="#9b7cff" opacity="0.565"/><circle cx="129" cy="447" r="7" fill="#ffdf45" opacity="0.54"/><circle cx="936" cy="554" r="10" fill="#9b7cff" opacity="0.515"/><circle cx="803" cy="221" r="13" fill="#ffdf45" opacity="0.49"/><circle cx="670" cy="328" r="16" fill="#9b7cff" opacity="0.46499999999999997"/></g>
  <g transform="translate(-300 0)"><rect x="660" y="72" width="486" height="510" rx="44" fill="#fff" opacity=".52" stroke="#27144a" stroke-opacity=".08"/></g>
  <g transform="translate(-300 0)" filter="url(#shadow)"><g transform="translate(692 112)"><rect x="0" y="0" width="424" height="344" rx="34" fill="#0f5fa8" opacity=".94"/><circle cx="44" cy="42" r="10" fill="#9b7cff"/><circle cx="76" cy="42" r="10" fill="#ffdf45"/><circle cx="108" cy="42" r="10" fill="#fff" opacity=".7"/><path d="m104 168-54 48 54 48M320 168l54 48-54 48M246 122l-70 188" fill="none" stroke="#ffdf45" stroke-width="24" stroke-linecap="round" stroke-linejoin="round"/><rect x="66" y="296" width="292" height="16" rx="8" fill="#9b7cff" opacity=".72"/></g></g>
  <g filter="url(#shadow)" opacity=".82"><circle cx="142" cy="474" r="42" fill="#9b7cff" opacity=".44"/><circle cx="224" cy="506" r="26" fill="#ffdf45" opacity=".5"/><circle cx="304" cy="458" r="18" fill="#0f5fa8" opacity=".16"/></g>
</svg>