<svg xmlns="http://www.w3.org/2000/svg" width="1200" height="675" viewBox="0 0 1200 675" role="img" aria-labelledby="title desc">
  <title id="title">Tokeny vs Securitize for RWA Tokenization</title>
  <desc id="desc">Editorial infrastructure visual for Tokenization Platforms.</desc>
  <defs>
    <radialGradient id="g1" cx="18%" cy="14%" r="60%"><stop stop-color="#d49b12" stop-opacity=".48"/><stop offset="1" stop-color="#fff4e8" stop-opacity="0"/></radialGradient>
    <radialGradient id="g2" cx="86%" cy="12%" r="58%"><stop stop-color="#3f8cff" stop-opacity=".42"/><stop offset="1" stop-color="#fff4e8" stop-opacity="0"/></radialGradient>
    <linearGradient id="split" x1="0" x2="1"><stop stop-color="#fff4e8"/><stop offset=".55" stop-color="#fff4e8"/><stop offset=".55" stop-color="#eef8ff"/><stop offset="1" stop-color="#fff7d1"/></linearGradient>
    <filter id="shadow" x="-20%" y="-20%" width="140%" height="140%"><feDropShadow dx="0" dy="22" stdDeviation="22" flood-color="#12213a" flood-opacity=".14"/></filter>
  </defs>
  <rect width="1200" height="675" fill="#fff4e8"/>
  <rect width="1200" height="675" fill="url(#g1)"/>
  <rect width="1200" height="675" fill="url(#g2)"/>
  <g opacity=".9"><path d="M-80 0V675" stroke="#172033" stroke-opacity=".055"/><path d="M6 0V675" stroke="#172033" stroke-opacity=".055"/><path d="M92 0V675" stroke="#172033" stroke-opacity=".055"/><path d="M178 0V675" stroke="#172033" stroke-opacity=".055"/><path d="M264 0V675" stroke="#172033" stroke-opacity=".055"/><path d="M350 0V675" stroke="#172033" stroke-opacity=".055"/><path d="M436 0V675" stroke="#172033" stroke-opacity=".055"/><path d="M522 0V675" stroke="#172033" stroke-opacity=".055"/><path d="M608 0V675" stroke="#172033" stroke-opacity=".055"/><path d="M694 0V675" stroke="#172033" stroke-opacity=".055"/><path d="M780 0V675" stroke="#172033" stroke-opacity=".055"/><path d="M866 0V675" stroke="#172033" stroke-opacity=".055"/><path d="M952 0V675" stroke="#172033" stroke-opacity=".055"/><path d="M1038 0V675" stroke="#172033" stroke-opacity=".055"/><path d="M1124 0V675" stroke="#172033" stroke-opacity=".055"/><path d="M1210 0V675" stroke="#172033" stroke-opacity=".055"/><path d="M1296 0V675" stroke="#172033" stroke-opacity=".055"/><path d="M1382 0V675" stroke="#172033" stroke-opacity=".055"/><path d="M0 0H1200" stroke="#172033" stroke-opacity=".045"/><path d="M0 74H1200" stroke="#172033" stroke-opacity=".045"/><path d="M0 148H1200" stroke="#172033" stroke-opacity=".045"/><path d="M0 222H1200" stroke="#172033" stroke-opacity=".045"/><path d="M0 296H1200" stroke="#172033" stroke-opacity=".045"/><path d="M0 370H1200" stroke="#172033" stroke-opacity=".045"/><path d="M0 444H1200" stroke="#172033" stroke-opacity=".045"/><path d="M0 518H1200" stroke="#172033" stroke-opacity=".045"/><path d="M0 592H1200" stroke="#172033" stroke-opacity=".045"/><path d="M0 666H1200" stroke="#172033" stroke-opacity=".045"/></g>
  <g><line x1="732" y1="218" x2="936" y2="542" stroke="#172033" stroke-opacity=".13" stroke-width="1.5"/><line x1="936" y1="542" x2="200" y2="426" stroke="#172033" stroke-opacity=".13" stroke-width="2.5"/><line x1="200" y1="426" x2="404" y2="310" stroke="#172033" stroke-opacity=".13" stroke-width="3.5"/><line x1="404" y1="310" x2="608" y2="194" stroke="#172033" stroke-opacity=".13" stroke-width="1.5"/><line x1="608" y1="194" x2="812" y2="518" stroke="#172033" stroke-opacity=".13" stroke-width="2.5"/><line x1="812" y1="518" x2="1016" y2="402" stroke="#172033" stroke-opacity=".13" stroke-width="3.5"/><line x1="1016" y1="402" x2="280" y2="286" stroke="#172033" stroke-opacity=".13" stroke-width="1.5"/><line x1="280" y1="286" x2="484" y2="170" stroke="#172033" stroke-opacity=".13" stroke-width="2.5"/><line x1="484" y1="170" x2="688" y2="494" stroke="#172033" stroke-opacity=".13" stroke-width="3.5"/><line x1="688" y1="494" x2="892" y2="378" stroke="#172033" stroke-opacity=".13" stroke-width="1.5"/><circle cx="732" cy="218" r="7" fill="#3f8cff" opacity="0.64"/><circle cx="936" cy="542" r="10" fill="#d49b12" opacity="0.615"/><circle cx="200" cy="426" r="13" fill="#3f8cff" opacity="0.59"/><circle cx="404" cy="310" r="16" fill="#d49b12" opacity="0.565"/><circle cx="608" cy="194" r="7" fill="#3f8cff" opacity="0.54"/><circle cx="812" cy="518" r="10" fill="#d49b12" opacity="0.515"/><circle cx="1016" cy="402" r="13" fill="#3f8cff" opacity="0.49"/><circle cx="280" cy="286" r="16" fill="#d49b12" opacity="0.46499999999999997"/><circle cx="484" cy="170" r="7" fill="#3f8cff" opacity="0.44"/><circle cx="688" cy="494" r="10" fill="#d49b12" opacity="0.41500000000000004"/><circle cx="892" cy="378" r="13" fill="#3f8cff" opacity="0.39"/></g>
  <g transform="translate(-300 0)"><rect x="660" y="72" width="486" height="510" rx="44" fill="#fff" opacity=".52" stroke="#172033" stroke-opacity=".08"/></g>
  <g transform="translate(-300 0)" filter="url(#shadow)"><g transform="translate(708 112)"><rect x="0" y="0" width="424" height="332" rx="34" fill="#4b2e83" opacity=".92"/><rect x="36" y="42" width="352" height="54" rx="18" fill="#fff" opacity=".78"/><circle cx="70" cy="69" r="14" fill="#d49b12"/><path d="M116 69h218" stroke="#172033" stroke-width="12" stroke-linecap="round" opacity=".45"/><rect x="36" y="124" width="352" height="46" rx="18" fill="#3f8cff" opacity=".76"/><rect x="36" y="192" width="352" height="46" rx="18" fill="#d49b12" opacity=".76"/><rect x="36" y="260" width="352" height="46" rx="18" fill="#3f8cff" opacity=".76"/></g></g>
  <g filter="url(#shadow)" opacity=".82"><circle cx="142" cy="474" r="42" fill="#d49b12" opacity=".44"/><circle cx="224" cy="506" r="26" fill="#3f8cff" opacity=".5"/><circle cx="304" cy="458" r="18" fill="#4b2e83" opacity=".16"/></g>
</svg>